<?xml version="1.0" standalone="no"?>
<!DOCTYPE svg PUBLIC "-//W3C//DTD SVG 20010904//EN"
 "http://www.w3.org/TR/2001/REC-SVG-20010904/DTD/svg10.dtd">
<svg version="1.0" xmlns="http://www.w3.org/2000/svg"
 width="1759.000000pt" height="329.000000pt" viewBox="0 0 1759.000000 329.000000"
 preserveAspectRatio="xMidYMid meet">
<metadata>
Created by potrace 1.13, written by Peter Selinger 2001-2015
</metadata>
<g transform="translate(0.000000,329.000000) scale(0.100000,-0.100000)"
fill="#000000" stroke="none">
<path d="M2200 3271 c-73 -23 -125 -57 -183 -120 -69 -73 -100 -147 -105 -246
-5 -96 18 -168 78 -243 32 -41 127 -122 142 -122 3 0 44 46 91 103 46 56 99
115 116 131 35 34 39 46 14 46 -41 1 -107 46 -130 90 -37 69 -28 137 25 194
37 39 81 56 147 56 107 0 193 -66 215 -164 14 -62 5 -121 -31 -216 -27 -72
-57 -123 -221 -385 -92 -147 -153 -266 -217 -427 -77 -194 -96 -293 -107 -540
-4 -82 -9 -148 -12 -148 -2 0 -21 13 -41 28 -20 16 -128 93 -241 172 -113 78
-242 174 -288 213 -187 158 -282 335 -282 524 0 191 72 328 208 395 61 30 74
33 162 33 81 0 102 -4 143 -25 97 -49 141 -124 141 -240 0 -95 -35 -180 -101
-240 -41 -39 -118 -80 -149 -80 -8 0 -14 -4 -14 -8 0 -11 164 -170 211 -205
44 -33 57 -33 119 -2 212 108 262 404 106 638 -84 126 -241 231 -396 263 -151
32 -340 -1 -478 -83 -64 -38 -156 -118 -185 -162 l-15 -23 -64 21 c-251 82
-495 27 -674 -154 -175 -176 -229 -435 -145 -684 39 -116 85 -193 164 -278
100 -107 229 -187 382 -240 149 -51 226 -62 620 -93 143 -11 298 -25 345 -31
125 -16 300 -56 366 -85 33 -14 46 -22 29 -19 -254 55 -293 57 -830 59 -415 2
-504 5 -580 19 -162 31 -270 74 -360 142 l-48 37 6 -33 c12 -62 86 -197 136
-248 65 -67 130 -106 226 -138 72 -24 94 -27 230 -27 140 0 162 3 330 42 282
65 360 76 545 75 138 0 178 -3 245 -22 150 -40 275 -112 436 -248 l95 -80 54
50 c148 136 328 242 476 279 74 18 117 22 249 22 175 0 270 -14 555 -79 198
-45 340 -55 460 -31 210 42 354 160 426 352 13 35 24 69 24 75 0 5 -21 -6 -47
-26 -111 -84 -272 -136 -488 -154 -77 -7 -294 -11 -530 -9 -439 2 -542 -5
-760 -57 -11 -3 0 4 25 16 120 55 319 88 720 119 146 11 313 27 373 35 400 57
677 252 788 555 69 190 61 372 -25 545 -143 288 -473 421 -785 315 l-58 -19
-84 82 c-137 134 -276 191 -474 191 -180 1 -306 -48 -437 -172 -117 -111 -178
-243 -178 -387 0 -171 99 -327 231 -367 36 -10 42 -9 81 18 23 16 83 68 133
116 78 75 87 87 70 93 -119 42 -170 82 -215 166 -81 153 -36 327 104 402 34
18 57 22 141 22 89 0 106 -3 157 -28 220 -108 282 -426 134 -690 -74 -133
-200 -247 -511 -462 -207 -144 -307 -219 -406 -306 l-75 -67 -18 162 c-10 88
-24 215 -32 281 -42 376 9 669 178 1030 128 272 144 377 78 512 -81 164 -320
255 -510 194z m-1343 -885 c4 -3 -7 -48 -23 -98 -36 -116 -40 -259 -10 -348
68 -199 213 -361 481 -535 61 -40 174 -114 253 -165 78 -51 141 -95 139 -97
-2 -2 -17 1 -33 7 -16 7 -159 45 -319 85 -159 40 -330 88 -380 105 -302 108
-493 271 -583 498 -22 58 -26 82 -27 177 0 99 3 116 27 167 48 103 139 183
235 208 39 10 230 7 240 -4z m3272 3 c101 -21 197 -111 242 -226 31 -80 31
-212 0 -303 -49 -144 -152 -277 -286 -369 -147 -102 -295 -158 -649 -247 -121
-30 -252 -64 -291 -75 -38 -11 -79 -23 -90 -26 -25 -6 44 42 260 180 218 139
334 228 424 322 91 96 138 169 173 270 46 131 36 294 -27 457 -5 13 0 17 27
21 69 8 169 7 217 -4z"/>
<path d="M5962 1948 l3 -453 83 -3 82 -3 0 313 0 313 313 -313 313 -313 55 3
54 3 3 453 2 452 -85 0 -85 0 0 -307 -1 -308 -305 308 -305 307 -65 0 -64 0 2
-452z"/>
<path d="M7592 2384 c-206 -55 -335 -226 -334 -443 1 -235 135 -397 369 -446
292 -62 558 87 612 343 21 103 6 234 -38 321 -51 99 -166 189 -290 225 -68 20
-245 20 -319 0z m294 -161 c73 -25 148 -104 170 -178 48 -168 -25 -331 -171
-382 -76 -27 -215 -24 -280 5 -162 74 -223 286 -127 442 29 47 103 104 156
119 54 16 198 13 252 -6z"/>
<path d="M8635 2389 c-3 -8 -4 -212 -3 -454 l3 -440 85 0 85 0 3 168 2 167 34
0 c45 0 76 -27 125 -109 57 -96 136 -179 196 -208 55 -25 149 -31 203 -12 34
12 34 19 8 114 l-12 39 -52 -3 c-73 -4 -108 21 -177 125 -31 47 -55 87 -53 88
2 1 25 11 52 21 61 22 123 77 147 130 22 47 25 139 7 199 -19 62 -90 128 -168
156 -58 20 -89 23 -272 27 -170 4 -209 3 -213 -8z m435 -175 c43 -25 63 -76
49 -127 -19 -69 -79 -96 -216 -97 l-93 0 0 126 0 126 113 -3 c90 -3 119 -8
147 -25z"/>
<path d="M9720 1945 l0 -458 218 6 c244 7 320 20 427 70 175 84 267 241 252
432 -15 191 -134 324 -342 381 -45 13 -120 18 -307 21 l-248 5 0 -457z m476
284 c174 -32 257 -137 241 -308 -16 -182 -168 -271 -463 -271 l-84 0 0 295 0
295 123 0 c68 0 150 -5 183 -11z"/>
<path d="M11390 1960 c-118 -242 -216 -447 -218 -455 -3 -12 12 -15 87 -15
l91 0 59 125 60 125 200 0 200 0 63 -122 63 -123 93 -3 c50 -1 92 0 92 4 0 4
-102 209 -227 455 l-228 449 -60 0 -60 0 -215 -440z m339 63 l61 -123 -121 0
c-119 0 -120 0 -113 22 8 28 106 229 109 226 2 -2 30 -58 64 -125z"/>
<path d="M12500 1945 l0 -456 83 3 82 3 5 307 5 308 303 -310 304 -310 59 0
59 0 0 455 0 455 -85 0 -85 0 0 -306 0 -306 -301 306 -301 306 -64 0 -64 0 0
-455z"/>
<path d="M14135 2381 c-230 -66 -356 -240 -342 -476 7 -130 34 -193 116 -276
108 -107 213 -144 411 -144 130 1 233 18 338 57 l52 19 0 225 0 224 -230 0
-230 0 0 -80 0 -80 145 0 145 0 0 -89 c0 -104 8 -96 -125 -113 -219 -28 -384
45 -433 191 -21 59 -15 169 12 226 27 58 89 118 155 149 40 18 64 21 191 21
132 0 152 -3 223 -28 43 -15 82 -25 87 -22 9 6 54 134 49 139 -11 9 -141 49
-201 61 -96 21 -286 18 -363 -4z"/>
<path d="M15130 1945 l0 -455 320 0 320 0 0 80 0 80 -235 0 -235 0 0 375 0
375 -85 0 -85 0 0 -455z"/>
<path d="M16090 1945 l0 -455 85 0 85 0 0 455 0 455 -85 0 -85 0 0 -455z"/>
<path d="M16797 1955 c-119 -244 -217 -449 -217 -455 0 -7 30 -10 91 -8 l90 3
57 122 57 122 202 1 202 0 63 -122 63 -123 93 -3 c50 -1 92 0 92 4 0 3 -102
208 -227 455 l-228 449 -60 0 -61 0 -217 -445z m342 -53 c-32 -2 -87 -2 -122
0 l-63 3 59 125 60 124 62 -124 63 -125 -59 -3z"/>
<path d="M5960 632 c0 -245 9 -290 71 -357 59 -64 109 -80 249 -80 100 1 121
4 163 24 26 13 63 41 81 63 53 62 61 106 61 343 l0 210 -57 3 -57 3 -3 -218
c-3 -251 -9 -271 -81 -304 -61 -27 -169 -26 -227 4 -75 38 -80 58 -80 304 l0
213 -60 0 -60 0 0 -208z"/>
<path d="M6897 833 c-4 -3 -7 -147 -7 -320 l0 -313 60 0 60 0 0 222 0 223 223
-223 c220 -220 223 -222 265 -222 l42 0 0 320 0 320 -60 0 -60 0 0 -217 0
-218 -218 218 c-212 212 -218 217 -258 217 -22 0 -44 -3 -47 -7z"/>
<path d="M7857 833 c-4 -3 -7 -147 -7 -320 l0 -313 60 0 60 0 0 320 0 320 -53
0 c-30 0 -57 -3 -60 -7z"/>
<path d="M8362 518 l164 -323 37 -3 36 -3 52 103 c29 57 100 203 160 326 l108
222 -63 0 -63 0 -108 -227 c-60 -126 -112 -232 -116 -237 -4 -5 -61 98 -126
228 l-118 236 -63 0 -63 0 163 -322z"/>
<path d="M9150 520 l0 -320 236 0 235 0 -3 53 -3 52 -172 3 -173 2 0 80 0 80
156 0 155 0 -3 53 -3 52 -152 3 -153 3 0 74 0 75 170 0 170 0 0 55 0 55 -230
0 -230 0 0 -320z"/>
<path d="M9900 520 l0 -320 60 0 60 0 0 120 c0 115 1 120 21 120 36 0 56 -18
111 -101 76 -115 153 -161 243 -145 44 9 48 16 35 68 -11 42 -12 43 -55 43
-51 0 -71 15 -127 98 l-39 57 26 10 c15 6 29 10 32 10 3 0 22 12 41 26 41 32
62 78 62 139 0 140 -96 195 -342 195 l-128 0 0 -320z m324 181 c16 -15 26 -35
26 -53 0 -70 -45 -98 -155 -98 l-75 0 0 91 0 91 89 -4 c78 -3 93 -6 115 -27z"/>
<path d="M10786 825 c-117 -41 -165 -142 -118 -247 26 -60 90 -92 227 -113
133 -21 165 -43 151 -101 -16 -60 -173 -84 -286 -43 -79 29 -81 28 -106 -16
-28 -48 -22 -57 54 -86 120 -45 296 -35 382 23 59 41 75 71 75 148 0 116 -40
148 -227 182 -62 11 -123 26 -135 33 -47 31 -37 93 18 116 44 18 184 7 242
-19 l48 -21 22 45 c22 45 22 46 2 60 -65 48 -263 70 -349 39z"/>
<path d="M11457 833 c-4 -3 -7 -147 -7 -320 l0 -313 60 0 60 0 0 320 0 320
-53 0 c-30 0 -57 -3 -60 -7z"/>
<path d="M11804 826 c-3 -8 -4 -31 -2 -52 l3 -39 113 -3 112 -3 0 -264 0 -265
60 0 60 0 0 265 0 265 115 0 115 0 0 55 0 55 -285 0 c-235 0 -287 -2 -291 -14z"/>
<path d="M12545 814 c9 -14 72 -105 141 -202 l124 -176 0 -118 0 -118 60 0 60
0 0 123 0 124 126 184 c69 101 128 190 131 197 4 9 -12 12 -59 12 l-65 0 -97
-146 -98 -146 -31 44 c-18 25 -63 90 -102 146 l-70 101 -69 1 -68 0 17 -26z"/>
<path d="M1500 764 c-89 -11 -238 -48 -360 -89 -142 -48 -269 -75 -356 -75
-53 0 -54 0 -119 -68 -79 -83 -245 -282 -245 -293 0 -5 12 -7 28 -4 15 2 70 7
122 10 108 7 197 19 530 75 129 21 297 46 373 55 165 19 445 21 594 4 85 -10
108 -10 111 0 2 7 18 28 34 46 35 41 37 39 -102 83 -156 50 -260 66 -405 65
-160 -1 -258 -14 -445 -59 -146 -35 -327 -74 -339 -73 -6 0 96 38 352 130 180
65 285 82 472 76 122 -4 185 -11 265 -30 58 -14 107 -23 108 -22 7 7 -94 76
-153 105 -33 16 -87 37 -120 45 -59 16 -276 27 -345 19z"/>
<path d="M2947 755 c-42 -8 -106 -28 -142 -44 -63 -29 -189 -110 -182 -118 2
-2 39 6 83 17 140 34 222 43 379 37 181 -5 255 -23 525 -127 210 -81 196 -83
-90 -15 -242 57 -317 68 -485 68 -110 0 -161 -5 -240 -22 -92 -21 -273 -76
-283 -86 -3 -2 6 -17 19 -33 13 -16 29 -37 35 -47 10 -17 17 -18 113 -6 138
17 437 15 596 -4 72 -8 263 -37 425 -64 343 -57 635 -90 628 -70 -5 13 -172
211 -243 287 l-67 72 -58 0 c-88 0 -209 26 -371 80 -80 27 -183 56 -230 65
-119 23 -315 28 -412 10z"/>
<path d="M1765 289 c-127 -7 -185 -15 -635 -84 -268 -42 -513 -75 -659 -91
l-64 -6 6 -50 c4 -28 9 -53 12 -56 12 -12 451 44 890 113 154 24 330 49 390
55 198 20 390 -8 479 -72 l48 -33 143 0 c135 0 145 1 172 23 77 63 180 86 378
85 99 -1 189 -8 305 -27 91 -14 251 -39 355 -55 203 -32 540 -76 668 -87 l77
-7 0 41 c0 22 3 47 6 55 4 12 -9 16 -68 22 -120 11 -344 42 -683 95 -465 72
-543 81 -711 81 -209 1 -329 -24 -378 -80 -17 -19 -30 -21 -121 -21 -81 0
-105 3 -116 16 -20 25 -83 53 -151 68 -79 18 -190 23 -343 15z"/>
</g>
</svg>
